<?xml version="1.0" standalone="no"?><svg xmlns="http://www.w3.org/2000/svg" viewBox="0 0 1440 320"><path fill="#0d47a1" fill-opacity="1" d="M0,128L40,117.3C80,107,160,85,240,74.7C320,64,400,64,480,69.3C560,75,640,85,720,117.3C800,149,880,203,960,202.7C1040,203,1120,149,1200,122.7C1280,96,1360,96,1400,96L1440,96L1440,320L1400,320C1360,320,1280,320,1200,320C1120,320,1040,320,960,320C880,320,800,320,720,320C640,320,560,320,480,320C400,320,320,320,240,320C160,320,80,320,40,320L0,320Z"></path></svg>